<svg width="17" height="17" viewBox="0 0 17 17" fill="none" xmlns="http://www.w3.org/2000/svg">
<path d="M5.77445 13.7814C5.77445 13.8475 5.69836 13.9005 5.60241 13.9005C5.49323 13.9104 5.41714 13.8575 5.41714 13.7814C5.41714 13.7152 5.49323 13.6623 5.58918 13.6623C5.68843 13.6523 5.77445 13.7053 5.77445 13.7814ZM4.74552 13.6325C4.72236 13.6987 4.78853 13.7748 4.88779 13.7946C4.97381 13.8277 5.07306 13.7946 5.09291 13.7284C5.11276 13.6623 5.0499 13.5862 4.95065 13.5564C4.86463 13.5332 4.76868 13.5663 4.74552 13.6325ZM6.20786 13.5762C6.11192 13.5994 6.04575 13.6623 6.05567 13.7384C6.0656 13.8045 6.15162 13.8475 6.25087 13.8244C6.34682 13.8012 6.41299 13.7384 6.40306 13.6722C6.39314 13.6093 6.30381 13.5663 6.20786 13.5762ZM8.38484 0.898193C3.79599 0.898193 0.285706 4.38201 0.285706 8.97086C0.285706 12.6399 2.59502 15.7797 5.89356 16.8847C6.31704 16.9608 6.46592 16.6994 6.46592 16.4844C6.46592 16.2793 6.456 15.1478 6.456 14.453C6.456 14.453 4.14007 14.9493 3.65373 13.4671C3.65373 13.4671 3.27656 12.5043 2.73397 12.2562C2.73397 12.2562 1.97633 11.7367 2.78691 11.7467C2.78691 11.7467 3.61072 11.8128 4.06398 12.6002C4.78853 13.8773 6.00274 13.5101 6.47585 13.2917C6.55194 12.7624 6.767 12.3951 7.0052 12.1768C5.15577 11.9716 3.28979 11.7037 3.28979 8.5209C3.28979 7.61108 3.54124 7.15451 4.07059 6.57222C3.98457 6.35717 3.70335 5.4705 4.15661 4.32577C4.84808 4.11072 6.43946 5.21905 6.43946 5.21905C7.10115 5.03378 7.81247 4.93783 8.51717 4.93783C9.22188 4.93783 9.9332 5.03378 10.5949 5.21905C10.5949 5.21905 12.1863 4.10741 12.8777 4.32577C13.331 5.47381 13.0498 6.35717 12.9638 6.57222C13.4931 7.15782 13.8173 7.61438 13.8173 8.5209C13.8173 11.7136 11.8687 11.9683 10.0192 12.1768C10.3236 12.4381 10.5817 12.9344 10.5817 13.7119C10.5817 14.8268 10.5717 16.2065 10.5717 16.4778C10.5717 16.6928 10.7239 16.9542 11.1441 16.8781C14.4526 15.7797 16.6957 12.6399 16.6957 8.97086C16.6957 4.38201 12.9737 0.898193 8.38484 0.898193ZM3.50154 12.3091C3.45853 12.3422 3.46845 12.4183 3.5247 12.4811C3.57763 12.5341 3.65373 12.5572 3.69674 12.5142C3.73975 12.4811 3.72982 12.405 3.67358 12.3422C3.62064 12.2892 3.54455 12.2661 3.50154 12.3091ZM3.14422 12.0411C3.12106 12.0841 3.15415 12.1371 3.22032 12.1701C3.27325 12.2032 3.33942 12.1933 3.36258 12.147C3.38574 12.104 3.35266 12.051 3.28649 12.018C3.22032 11.9981 3.16738 12.008 3.14422 12.0411ZM4.21617 13.2189C4.16323 13.2619 4.18308 13.3612 4.25918 13.4241C4.33527 13.5001 4.43122 13.5101 4.47423 13.4571C4.51724 13.4141 4.49739 13.3149 4.43122 13.252C4.35843 13.1759 4.25918 13.166 4.21617 13.2189ZM3.839 12.7326C3.78607 12.7657 3.78607 12.8517 3.839 12.9278C3.89194 13.0039 3.98126 13.037 4.02427 13.0039C4.07721 12.9609 4.07721 12.8748 4.02427 12.7988C3.97796 12.7227 3.89194 12.6896 3.839 12.7326Z" fill="white"/>
</svg>
