<svg width="17" height="17" viewBox="0 0 17 17" fill="none" xmlns="http://www.w3.org/2000/svg">
<path d="M4.27722 16.8982H0.960001V6.21581H4.27722V16.8982ZM2.61682 4.75864C1.55609 4.75864 0.695709 3.88005 0.695709 2.81931C0.695709 2.3098 0.898112 1.82115 1.25839 1.46087C1.61867 1.1006 2.10731 0.898193 2.61682 0.898193C3.12633 0.898193 3.61498 1.1006 3.97526 1.46087C4.33554 1.82115 4.53794 2.3098 4.53794 2.81931C4.53794 3.88005 3.6772 4.75864 2.61682 4.75864ZM16.6925 16.8982H13.3824V11.6981C13.3824 10.4588 13.3574 8.86944 11.6577 8.86944C9.93306 8.86944 9.66877 10.2159 9.66877 11.6088V16.8982H6.35512V6.21581H9.53662V7.67299H9.58305C10.0259 6.83368 11.1077 5.94795 12.7217 5.94795C16.0789 5.94795 16.6961 8.15871 16.6961 11.0302V16.8982H16.6925Z" fill="white"/>
</svg>
